<svg width="859" height="351" viewBox="0 0 859 351" fill="none" xmlns="http://www.w3.org/2000/svg">
<circle cx="447" cy="191" r="25" fill="#383838"/>
<rect x="758" y="279.243" width="39" height="98" rx="19.5" transform="rotate(-46.4001 758 279.243)" fill="#C6C6C6"/>
<rect x="680.811" y="229.778" width="39" height="98" rx="19.5" transform="rotate(39.8603 680.811 229.778)" fill="#C6C6C6"/>
<path d="M482 275.778C482 248.164 504.386 225.778 532 225.778H562C589.614 225.778 612 248.164 612 275.778V330.778C612 341.824 603.046 350.778 592 350.778H502C490.954 350.778 482 341.824 482 330.778V275.778Z" fill="#B9CDCD"/>
<path d="M662 275.778C662 248.164 684.386 225.778 712 225.778H742C769.614 225.778 792 248.164 792 275.778V330.778C792 341.824 783.046 350.778 772 350.778H682C670.954 350.778 662 341.824 662 330.778V275.778Z" fill="#3C4040"/>
<g clip-path="url(#clip0_1964_6786)">
<path d="M603.802 59.6912C604.206 60.7319 603.349 61.235 602.377 61.1582C602.047 61.131 601.717 61.0555 601.397 60.9994C601.239 60.9642 601.092 60.9483 600.935 60.9131C600.666 60.8575 600.808 60.8877 600.793 60.8828C600.523 60.8272 600.249 60.786 599.98 60.7304C596.882 60.1705 593.746 59.8851 590.609 60.0145C578.938 60.497 568.946 66.8214 561.7 75.0431C554.454 83.2648 549.104 93.7615 545.117 104.175C544.694 105.265 542.86 104.669 543.283 103.579C549.185 88.1726 557.918 71.7084 573.204 63.1482C580.63 58.9891 589.366 57.3454 598.042 58.5851C598.737 58.6834 599.412 58.7911 600.097 58.9181C600.367 58.9737 600.641 59.0149 600.91 59.0705C600.941 59.0804 601.677 59.208 601.291 59.1465C601.383 59.1763 601.499 59.1822 601.596 59.1976C601.915 59.2537 602.28 59.2764 602.595 59.3469C602.88 59.4075 602.626 59.3569 602.626 59.3569C602.222 59.6086 601.845 59.8848 602.087 60.4899C601.651 59.391 603.34 58.5679 603.787 59.6862L603.802 59.6912Z" fill="#3C4040"/>
<path d="M581.513 113.328L585.585 96.5208L589.338 97.431C592.347 98.1591 595.37 96.3085 596.1 93.3051L596.814 90.332C597.543 87.3287 595.689 84.3101 592.681 83.582L535.52 69.7786C532.512 69.0505 529.488 70.901 528.759 73.9044L528.045 76.8775C527.315 79.8809 529.169 82.8994 532.178 83.6275L535.93 84.5376L531.281 103.711C500.361 107.958 473.832 130.18 466.159 161.852C456.1 203.369 482.219 245.31 524.504 255.518C566.79 265.727 609.212 240.35 619.286 198.833C627.582 164.582 611.233 130.104 581.528 113.328H581.513Z" fill="#D7F135"/>
<path d="M522.272 164.561C524.709 164.173 526.22 160.955 525.648 157.373C525.076 153.79 522.637 151.201 520.2 151.589C517.764 151.977 516.253 155.195 516.825 158.777C517.397 162.359 519.836 164.949 522.272 164.561Z" stroke="#76B159" stroke-miterlimit="10"/>
<path d="M568.708 160.542C571.144 160.155 572.656 156.936 572.083 153.354C571.511 149.772 569.072 147.182 566.636 147.57C564.2 147.958 562.688 151.176 563.261 154.759C563.833 158.341 566.272 160.93 568.708 160.542Z" stroke="#76B159" stroke-miterlimit="10"/>
<path d="M601.552 58.7709C602.229 63.3081 607.418 66.2916 613.111 65.4337C616.656 64.9003 619.564 63.0007 621.104 60.5555L613.323 57.0903L621.079 52.8822C619.147 49.989 615.064 48.3275 610.63 48.9955C604.923 49.8588 600.855 54.2247 601.547 58.7566L601.552 58.7709Z" fill="#76B159"/>
<path d="M513.085 175.459C522.308 173.991 528.312 163.579 526.495 152.204C524.678 140.829 515.728 132.798 506.505 134.266C497.282 135.734 491.278 146.146 493.095 157.521C494.911 168.896 503.861 176.927 513.085 175.459Z" fill="white"/>
<path d="M513.483 157.471C515.92 157.083 517.431 153.865 516.859 150.283C516.287 146.701 513.848 144.111 511.411 144.499C508.975 144.887 507.464 148.105 508.036 151.687C508.608 155.269 511.047 157.859 513.483 157.471Z" fill="#231815"/>
<path d="M559.52 171.441C568.743 169.972 574.747 159.561 572.931 148.185C571.114 136.81 562.164 128.779 552.94 130.247C543.717 131.716 537.713 142.127 539.53 153.502C541.347 164.878 550.297 172.909 559.52 171.441Z" fill="white"/>
<path d="M559.919 153.453C562.355 153.065 563.866 149.846 563.294 146.264C562.722 142.682 560.283 140.093 557.847 140.48C555.411 140.868 553.899 144.087 554.472 147.669C555.044 151.251 557.483 153.84 559.919 153.453Z" fill="#231815"/>
<path d="M590.736 63.866C588.635 66.2237 589.339 70.2629 592.293 72.8928C594.143 74.5287 596.414 75.2304 598.376 74.9599L596.788 69.342L602.415 71.5765C603.098 69.2861 602.181 66.4026 599.88 64.3532C596.926 61.7234 592.815 61.5066 590.714 63.8643L590.736 63.866Z" fill="#76B159"/>
<ellipse cx="543" cy="214.778" rx="33" ry="23" fill="#DC8560"/>
</g>
<circle cx="426" cy="223.778" r="17" fill="#383838"/>
<circle cx="411.5" cy="245.278" r="12.5" fill="#383838"/>
<path d="M670.5 147.279L596.5 36.7783L540 49.2784L487.5 43.7784L424.5 147.278L458.5 174.279L540 101.286L627.5 174.279L670.5 147.279Z" fill="#76B159"/>
<rect x="258.264" y="232" width="39" height="98" rx="19.5" transform="rotate(43.3432 258.264 232)" fill="#B0CA0C"/>
<path d="M109 275.778C109 248.164 131.386 225.778 159 225.778H189C216.614 225.778 239 248.164 239 275.778V330.778C239 341.824 230.046 350.778 219 350.778H129C117.954 350.778 109 341.824 109 330.778V275.778Z" fill="#9B6046"/>
<rect x="65" y="305.667" width="39" height="53.6395" rx="19.5" transform="rotate(-47.7938 65 305.667)" fill="#B0CA0C"/>
<rect x="120.02" y="240.778" width="39" height="53.6395" rx="19.5" transform="rotate(55.1486 120.02 240.778)" fill="#B0CA0C"/>
<g clip-path="url(#clip1_1964_6786)">
<path d="M230.802 59.6912C231.206 60.7319 230.349 61.235 229.377 61.1582C229.047 61.131 228.717 61.0555 228.397 60.9994C228.239 60.9642 228.092 60.9483 227.935 60.9131C227.666 60.8575 227.808 60.8877 227.793 60.8828C227.523 60.8272 227.249 60.786 226.98 60.7304C223.882 60.1705 220.746 59.8851 217.609 60.0145C205.938 60.497 195.946 66.8214 188.7 75.0431C181.454 83.2648 176.104 93.7615 172.117 104.175C171.694 105.265 169.86 104.669 170.283 103.579C176.185 88.1726 184.918 71.7084 200.204 63.1482C207.63 58.9891 216.366 57.3454 225.042 58.5851C225.737 58.6834 226.412 58.7911 227.097 58.9181C227.367 58.9737 227.641 59.0149 227.91 59.0705C227.941 59.0804 228.677 59.208 228.291 59.1465C228.383 59.1763 228.499 59.1822 228.596 59.1976C228.915 59.2537 229.28 59.2764 229.595 59.3469C229.88 59.4075 229.626 59.3569 229.626 59.3569C229.222 59.6086 228.845 59.8848 229.087 60.4899C228.651 59.391 230.34 58.5679 230.787 59.6862L230.802 59.6912Z" fill="#3C4040"/>
<path d="M213.237 111.265L217.309 94.4579L221.062 95.368C224.071 96.0961 227.095 94.2455 227.824 91.2421L228.538 88.2691C229.267 85.2657 227.414 82.2471 224.405 81.519L167.244 67.7156C164.236 66.9875 161.212 68.8381 160.483 71.8414L159.769 74.8145C159.04 77.8179 160.893 80.8364 163.902 81.5645L167.655 82.4746L163.005 101.648C132.085 105.895 105.556 128.117 97.8675 159.789C87.8089 201.306 113.928 243.247 156.213 253.455C198.499 263.664 240.921 238.287 250.995 196.77C259.291 162.519 242.942 128.041 213.237 111.265Z" stroke="#76B159" stroke-miterlimit="10"/>
<path d="M208.513 113.328L212.585 96.5208L216.338 97.431C219.347 98.1591 222.37 96.3085 223.1 93.3051L223.814 90.332C224.543 87.3287 222.689 84.3101 219.681 83.582L162.52 69.7786C159.512 69.0505 156.488 70.901 155.759 73.9044L155.045 76.8775C154.315 79.8809 156.169 82.8994 159.178 83.6275L162.93 84.5376L158.281 103.711C127.361 107.958 100.832 130.18 93.1585 161.852C83.0999 203.369 109.219 245.31 151.504 255.518C193.79 265.727 236.212 240.35 246.286 198.833C254.582 164.582 238.233 130.104 208.528 113.328H208.513Z" fill="#76B159"/>
<path d="M146.311 174.117C155.534 172.649 161.538 162.237 159.722 150.862C157.905 139.487 148.955 131.456 139.731 132.924C130.508 134.392 124.504 144.804 126.321 156.179C128.138 167.554 137.088 175.586 146.311 174.117Z" stroke="#76B159" stroke-miterlimit="10"/>
<path d="M149.272 164.561C151.709 164.173 153.22 160.955 152.648 157.373C152.076 153.79 149.637 151.201 147.2 151.589C144.764 151.977 143.253 155.195 143.825 158.777C144.397 162.359 146.836 164.949 149.272 164.561Z" stroke="#76B159" stroke-miterlimit="10"/>
<path d="M192.749 170.099C201.972 168.631 207.976 158.219 206.159 146.844C204.342 135.468 195.392 127.437 186.169 128.905C176.946 130.374 170.942 140.785 172.759 152.161C174.576 163.536 183.525 171.567 192.749 170.099Z" stroke="#76B159" stroke-miterlimit="10"/>
<path d="M195.708 160.542C198.144 160.155 199.656 156.936 199.083 153.354C198.511 149.772 196.072 147.182 193.636 147.57C191.2 147.958 189.688 151.176 190.261 154.759C190.833 158.341 193.272 160.93 195.708 160.542Z" stroke="#76B159" stroke-miterlimit="10"/>
<path d="M228.552 58.7709C229.229 63.3081 234.418 66.2916 240.111 65.4337C243.656 64.9003 246.564 63.0007 248.104 60.5555L240.323 57.0903L248.079 52.8822C246.147 49.989 242.064 48.3275 237.63 48.9955C231.923 49.8588 227.855 54.2247 228.547 58.7566L228.552 58.7709Z" fill="#76B159"/>
<path d="M140.085 175.459C149.308 173.991 155.312 163.579 153.495 152.204C151.678 140.829 142.728 132.798 133.505 134.266C124.282 135.734 118.278 146.146 120.095 157.521C121.911 168.896 130.861 176.927 140.085 175.459Z" fill="white"/>
<path d="M143.042 165.903C145.478 165.515 146.99 162.297 146.417 158.714C145.845 155.132 143.406 152.543 140.97 152.931C138.534 153.318 137.022 156.537 137.595 160.119C138.167 163.701 140.606 166.291 143.042 165.903Z" fill="#231815"/>
<path d="M186.52 171.441C195.743 169.972 201.747 159.561 199.931 148.185C198.114 136.81 189.164 128.779 179.94 130.247C170.717 131.716 164.713 142.127 166.53 153.502C168.347 164.878 177.297 172.909 186.52 171.441Z" fill="white"/>
<path d="M189.478 161.884C191.914 161.496 193.425 158.278 192.853 154.696C192.281 151.114 189.842 148.524 187.406 148.912C184.969 149.3 183.458 152.518 184.03 156.1C184.602 159.682 187.041 162.272 189.478 161.884Z" fill="#231815"/>
<path d="M217.736 63.866C215.635 66.2237 216.339 70.2629 219.293 72.8928C221.143 74.5287 223.414 75.2304 225.376 74.9599L223.788 69.342L229.415 71.5765C230.098 69.2861 229.181 66.4026 226.88 64.3532C223.926 61.7234 219.815 61.5066 217.714 63.8643L217.736 63.866Z" fill="#76B159"/>
<circle cx="180" cy="220.778" r="23" fill="#EFAD91"/>
</g>
<path d="M332 146.001L246.5 77.2783L276.947 37.9125L190.732 47.2416L129.447 4.77832L145.028 71.6901L37 60.7526L110.058 101.286L80.6268 150.183L133.948 117.049L145.028 150.183L168.227 117.049L202.505 161.764V122.839L288.373 179.778L266.56 135.707L332 146.001Z" fill="#3C4040"/>
<rect x="329.264" y="241" width="39" height="98" rx="19.5" transform="rotate(43.3432 329.264 241)" fill="#D26334"/>
<rect x="396" y="260.889" width="39" height="98" rx="19.5" transform="rotate(-47.7938 396 260.889)" fill="#D26334"/>
<path d="M304 275.778C304 248.164 326.386 225.778 354 225.778H384C411.614 225.778 434 248.164 434 275.778V330.778C434 341.824 425.046 350.778 414 350.778H324C312.954 350.778 304 341.824 304 330.778V275.778Z" fill="#FA8A5A"/>
<circle cx="73.3288" cy="73.3288" r="73.3288" transform="matrix(-1 0 0 1 423.346 94.4312)" fill="url(#paint0_linear_1964_6786)"/>
<ellipse cx="17.5251" cy="22.137" rx="17.5251" ry="22.137" transform="matrix(-1 0 0 1 384.398 135.778)" fill="white"/>
<ellipse cx="17.5251" cy="22.137" rx="17.5251" ry="22.137" transform="matrix(-1 0 0 1 341.049 135.778)" fill="white"/>
<ellipse cx="5.99543" cy="7.84018" rx="5.99543" ry="7.84018" transform="matrix(-1 0 0 1 321.988 153.842)" fill="#3C4040"/>
<ellipse cx="5.99543" cy="7.84018" rx="5.99543" ry="7.84018" transform="matrix(-1 0 0 1 368.105 153.842)" fill="#3C4040"/>
<path d="M340.736 107.667L259.988 158.68C201.361 110.196 255.009 87.7771 289.161 82.6284C351.91 -48.2973 465.501 92.7784 481.501 178.779L446.999 193.279L340.736 107.667Z" fill="#383838"/>
<path d="M334.5 202.278C343.5 213.778 358 202.278 358 202.278" stroke="#E78181" stroke-width="4"/>
<circle cx="73.3288" cy="73.3288" r="73.3288" transform="matrix(-1 0 0 1 781.348 94.4312)" fill="#B9CDCD"/>
<ellipse cx="17.5251" cy="22.137" rx="17.5251" ry="22.137" transform="matrix(-1 0 0 1 709.4 126.714)" fill="white"/>
<ellipse cx="17.5251" cy="22.137" rx="17.5251" ry="22.137" transform="matrix(-1 0 0 1 666.051 126.714)" fill="white"/>
<ellipse cx="5.99543" cy="7.84018" rx="5.99543" ry="7.84018" transform="matrix(-1 0 0 1 648.99 138.778)" fill="#3C4040"/>
<ellipse cx="5.99543" cy="7.84018" rx="5.99543" ry="7.84018" transform="matrix(-1 0 0 1 695.107 138.778)" fill="#3C4040"/>
<path d="M750.001 314.278L746 126.778L725.001 159.278L674.001 102.278C661.602 114.678 634.167 140.778 622 152.278C614.4 146.678 611.168 137.945 610.501 134.278C608.501 98.2783 648.786 87.6117 669.179 86.7783C653.561 33.1043 672.747 51.0562 701.864 63.8436C824.84 -13.3298 838.148 227.96 830.001 314.278L750.001 314.278Z" fill="#E08159"/>
<circle cx="649.5" cy="208.278" r="8.5" fill="#DC8560"/>
<circle cx="655.5" cy="218.278" r="8.5" fill="#DC8560"/>
<rect y="204.778" width="99" height="101" rx="49.5" fill="#3C4040"/>
<path d="M26.4787 249.626C26.3764 248.595 25.9375 247.794 25.1619 247.223C24.3864 246.652 23.3338 246.366 22.0043 246.366C21.1009 246.366 20.3381 246.494 19.7159 246.75C19.0938 246.997 18.6165 247.342 18.2841 247.785C17.9602 248.229 17.7983 248.731 17.7983 249.294C17.7813 249.763 17.8793 250.172 18.0923 250.521C18.3139 250.871 18.6165 251.173 19 251.429C19.3835 251.676 19.8267 251.893 20.3295 252.081C20.8324 252.26 21.3693 252.413 21.9403 252.541L24.2926 253.104C25.4347 253.359 26.483 253.7 27.4375 254.126C28.392 254.552 29.2188 255.077 29.9176 255.699C30.6165 256.321 31.1577 257.054 31.5412 257.898C31.9332 258.741 32.1335 259.709 32.142 260.8C32.1335 262.402 31.7244 263.791 30.9148 264.967C30.1136 266.135 28.9545 267.043 27.4375 267.69C25.929 268.329 24.1094 268.649 21.9787 268.649C19.8651 268.649 18.0241 268.325 16.456 267.677C14.8963 267.03 13.6776 266.071 12.7997 264.801C11.9304 263.523 11.4744 261.942 11.4318 260.058H16.7884C16.848 260.936 17.0994 261.669 17.5426 262.257C17.9943 262.837 18.5952 263.275 19.3452 263.574C20.1037 263.864 20.9602 264.008 21.9148 264.008C22.8523 264.008 23.6662 263.872 24.3565 263.599C25.0554 263.327 25.5966 262.947 25.9801 262.462C26.3636 261.976 26.5554 261.418 26.5554 260.787C26.5554 260.199 26.3807 259.704 26.0312 259.304C25.6903 258.903 25.1875 258.562 24.5227 258.281C23.8665 258 23.0611 257.744 22.1065 257.514L19.2557 256.798C17.0483 256.261 15.3054 255.422 14.027 254.28C12.7486 253.138 12.1136 251.599 12.1222 249.665C12.1136 248.079 12.5355 246.695 13.3878 245.51C14.2486 244.325 15.429 243.4 16.929 242.736C18.429 242.071 20.1335 241.739 22.0426 241.739C23.9858 241.739 25.6818 242.071 27.1307 242.736C28.5881 243.4 29.7216 244.325 30.5312 245.51C31.3409 246.695 31.7585 248.067 31.7841 249.626H26.4787ZM51.5178 239.802H64.8018V243.762H51.5178V239.802ZM63.0378 239.802H63.5058L64.1178 239.622L67.0338 240.018C66.4218 244.266 65.3778 249.738 64.4778 254.058L60.5898 253.626C61.5618 249.234 62.6058 243.33 63.0378 240.234V239.802ZM63.6498 248.802H69.1578V252.654H62.4978L63.6498 248.802ZM67.7178 248.802H68.5098L69.2298 248.658L71.7858 249.63C69.8058 260.646 64.6938 267.846 58.0698 271.446C57.4578 270.51 56.0538 268.89 55.1538 268.278C61.5618 265.146 66.1338 258.918 67.7178 249.63V248.802ZM58.2138 245.202C59.8338 256.182 63.5058 264.822 72.5418 268.062C71.6418 268.854 70.4538 270.474 69.8778 271.59C60.4098 267.522 56.9178 258.198 55.0458 245.67L58.2138 245.202ZM43.6698 237.75L47.4138 239.154C45.9378 241.89 44.2818 245.094 42.8778 247.11L39.9978 245.85C41.2938 243.726 42.8418 240.27 43.6698 237.75ZM47.8098 241.998L51.3018 243.582C48.7098 247.722 45.1818 252.726 42.4458 255.858L39.9618 254.454C42.6258 251.178 45.9378 245.886 47.8098 241.998ZM38.1258 246.282L40.1778 243.33C42.0858 244.986 44.3178 247.254 45.2538 248.91L43.0218 252.258C42.1578 250.53 39.9618 248.01 38.1258 246.282ZM47.1978 250.602L50.0418 249.414C51.4818 251.826 52.8498 254.994 53.2458 257.082L50.1858 258.45C49.7898 256.362 48.5298 253.086 47.1978 250.602ZM38.0898 253.59C41.4018 253.482 46.2978 253.302 51.0858 253.05L51.0498 256.47C46.5858 256.83 41.9778 257.118 38.4498 257.37L38.0898 253.59ZM47.6658 259.494L50.6898 258.522C51.5538 260.43 52.4178 262.986 52.7778 264.642L49.6098 265.758C49.2858 264.066 48.4218 261.474 47.6658 259.494ZM39.6378 258.882L43.2018 259.494C42.8418 262.95 42.0498 266.55 41.0058 268.854C40.2498 268.386 38.6298 267.63 37.7298 267.27C38.7738 265.146 39.3498 261.942 39.6378 258.882ZM43.6698 255.498H47.4498V271.554H43.6698V255.498ZM54.4698 242.43H58.2138V249.198C58.2138 255.606 57.5298 265.074 51.8058 271.41C51.1218 270.726 49.6098 269.574 48.6378 269.106C53.9658 263.346 54.4698 254.778 54.4698 249.162V242.43ZM85.4702 242.097L84.9717 260.429H80.2927L79.7813 242.097H85.4702ZM82.6322 268.611C81.7884 268.611 81.064 268.312 80.4589 267.716C79.8538 267.111 79.5555 266.386 79.564 265.543C79.5555 264.707 79.8538 263.991 80.4589 263.395C81.064 262.798 81.7884 262.5 82.6322 262.5C83.4418 262.5 84.1535 262.798 84.7671 263.395C85.3808 263.991 85.6918 264.707 85.7004 265.543C85.6918 266.105 85.5427 266.621 85.2529 267.089C84.9717 267.55 84.6009 267.92 84.1407 268.202C83.6805 268.474 83.1776 268.611 82.6322 268.611Z" fill="url(#paint1_angular_1964_6786)"/>
<rect x="415" y="25.7783" width="99" height="101" rx="49.5" fill="#D7F135"/>
<path d="M430.288 89.2783H424.357L433.395 63.0965H440.528L449.554 89.2783H443.622L437.064 69.0795H436.859L430.288 89.2783ZM429.918 78.9871H443.929V83.3081H429.918V78.9871ZM468.358 60.8023H481.642V64.7623H468.358V60.8023ZM479.878 60.8023H480.346L480.958 60.6223L483.874 61.0183C483.262 65.2663 482.218 70.7383 481.318 75.0583L477.43 74.6263C478.402 70.2343 479.446 64.3303 479.878 61.2343V60.8023ZM480.49 69.8023H485.998V73.6543H479.338L480.49 69.8023ZM484.558 69.8023H485.35L486.07 69.6583L488.626 70.6303C486.646 81.6463 481.534 88.8463 474.91 92.4463C474.298 91.5103 472.894 89.8903 471.994 89.2783C478.402 86.1463 482.974 79.9183 484.558 70.6303V69.8023ZM475.054 66.2023C476.674 77.1823 480.346 85.8223 489.382 89.0623C488.482 89.8543 487.294 91.4743 486.718 92.5903C477.25 88.5223 473.758 79.1983 471.886 66.6703L475.054 66.2023ZM460.51 58.7503L464.254 60.1543C462.778 62.8903 461.122 66.0943 459.718 68.1103L456.838 66.8503C458.134 64.7263 459.682 61.2703 460.51 58.7503ZM464.65 62.9983L468.142 64.5823C465.55 68.7223 462.022 73.7263 459.286 76.8583L456.802 75.4543C459.466 72.1783 462.778 66.8863 464.65 62.9983ZM454.966 67.2823L457.018 64.3303C458.926 65.9863 461.158 68.2543 462.094 69.9103L459.862 73.2583C458.998 71.5303 456.802 69.0103 454.966 67.2823ZM464.038 71.6023L466.882 70.4143C468.322 72.8263 469.69 75.9943 470.086 78.0823L467.026 79.4503C466.63 77.3623 465.37 74.0863 464.038 71.6023ZM454.93 74.5903C458.242 74.4823 463.138 74.3023 467.926 74.0503L467.89 77.4703C463.426 77.8303 458.818 78.1183 455.29 78.3703L454.93 74.5903ZM464.506 80.4943L467.53 79.5223C468.394 81.4303 469.258 83.9863 469.618 85.6423L466.45 86.7583C466.126 85.0663 465.262 82.4743 464.506 80.4943ZM456.478 79.8823L460.042 80.4943C459.682 83.9503 458.89 87.5503 457.846 89.8543C457.09 89.3863 455.47 88.6303 454.57 88.2703C455.614 86.1463 456.19 82.9423 456.478 79.8823ZM460.51 76.4983H464.29V92.5543H460.51V76.4983ZM471.31 63.4303H475.054V70.1983C475.054 76.6063 474.37 86.0743 468.646 92.4103C467.962 91.7263 466.45 90.5743 465.478 90.1063C470.806 84.3463 471.31 75.7783 471.31 70.1623V63.4303ZM502.31 63.0965L501.812 81.4289H497.133L496.621 63.0965H502.31ZM499.472 89.6107C498.628 89.6107 497.904 89.3124 497.299 88.7158C496.694 88.1107 496.395 87.3863 496.404 86.5425C496.395 85.7073 496.694 84.9914 497.299 84.3948C497.904 83.7982 498.628 83.4999 499.472 83.4999C500.282 83.4999 500.993 83.7982 501.607 84.3948C502.221 84.9914 502.532 85.7073 502.54 86.5425C502.532 87.105 502.383 87.6206 502.093 88.0894C501.812 88.5496 501.441 88.9204 500.981 89.2016C500.52 89.4743 500.017 89.6107 499.472 89.6107Z" fill="#79B95A"/>
<rect x="562" y="250" width="99" height="101" rx="49.5" fill="url(#paint2_angular_1964_6786)"/>
<path d="M574.276 313.5V287.318H584.759C586.685 287.318 588.291 287.604 589.578 288.175C590.865 288.746 591.832 289.538 592.48 290.553C593.128 291.558 593.452 292.717 593.452 294.03C593.452 295.053 593.247 295.952 592.838 296.727C592.429 297.494 591.866 298.125 591.151 298.619C590.443 299.105 589.634 299.45 588.722 299.655V299.911C589.719 299.953 590.652 300.234 591.521 300.754C592.399 301.274 593.111 302.003 593.656 302.94C594.202 303.869 594.474 304.977 594.474 306.264C594.474 307.653 594.129 308.893 593.439 309.984C592.757 311.067 591.747 311.923 590.409 312.554C589.071 313.185 587.422 313.5 585.462 313.5H574.276ZM579.811 308.974H584.324C585.866 308.974 586.991 308.68 587.699 308.092C588.406 307.496 588.76 306.703 588.76 305.714C588.76 304.99 588.585 304.351 588.236 303.797C587.886 303.243 587.388 302.808 586.74 302.493C586.101 302.178 585.338 302.02 584.452 302.02H579.811V308.974ZM579.811 298.274H583.915C584.673 298.274 585.347 298.142 585.935 297.878C586.531 297.605 587 297.222 587.341 296.727C587.69 296.233 587.865 295.641 587.865 294.95C587.865 294.004 587.528 293.241 586.855 292.662C586.19 292.082 585.244 291.793 584.017 291.793H579.811V298.274ZM613.729 285.024H627.013V288.984H613.729V285.024ZM625.249 285.024H625.717L626.329 284.844L629.245 285.24C628.633 289.488 627.589 294.96 626.689 299.28L622.801 298.848C623.773 294.456 624.817 288.552 625.249 285.456V285.024ZM625.861 294.024H631.369V297.876H624.709L625.861 294.024ZM629.929 294.024H630.721L631.441 293.88L633.997 294.852C632.017 305.868 626.905 313.068 620.281 316.668C619.669 315.732 618.265 314.112 617.365 313.5C623.773 310.368 628.345 304.14 629.929 294.852V294.024ZM620.425 290.424C622.045 301.404 625.717 310.044 634.753 313.284C633.853 314.076 632.665 315.696 632.089 316.812C622.621 312.744 619.129 303.42 617.257 290.892L620.425 290.424ZM605.881 282.972L609.625 284.376C608.149 287.112 606.493 290.316 605.089 292.332L602.209 291.072C603.505 288.948 605.053 285.492 605.881 282.972ZM610.021 287.22L613.513 288.804C610.921 292.944 607.393 297.948 604.657 301.08L602.173 299.676C604.837 296.4 608.149 291.108 610.021 287.22ZM600.337 291.504L602.389 288.552C604.297 290.208 606.529 292.476 607.465 294.132L605.233 297.48C604.369 295.752 602.173 293.232 600.337 291.504ZM609.409 295.824L612.253 294.636C613.693 297.048 615.061 300.216 615.457 302.304L612.397 303.672C612.001 301.584 610.741 298.308 609.409 295.824ZM600.301 298.812C603.613 298.704 608.509 298.524 613.297 298.272L613.261 301.692C608.797 302.052 604.189 302.34 600.661 302.592L600.301 298.812ZM609.877 304.716L612.901 303.744C613.765 305.652 614.629 308.208 614.989 309.864L611.821 310.98C611.497 309.288 610.633 306.696 609.877 304.716ZM601.849 304.104L605.413 304.716C605.053 308.172 604.261 311.772 603.217 314.076C602.461 313.608 600.841 312.852 599.941 312.492C600.985 310.368 601.561 307.164 601.849 304.104ZM605.881 300.72H609.661V316.776H605.881V300.72ZM616.681 287.652H620.425V294.42C620.425 300.828 619.741 310.296 614.017 316.632C613.333 315.948 611.821 314.796 610.849 314.328C616.177 308.568 616.681 300 616.681 294.384V287.652ZM647.681 287.318L647.183 305.651H642.504L641.992 287.318H647.681ZM644.843 313.832C643.999 313.832 643.275 313.534 642.67 312.938C642.065 312.332 641.766 311.608 641.775 310.764C641.766 309.929 642.065 309.213 642.67 308.616C643.275 308.02 643.999 307.722 644.843 307.722C645.653 307.722 646.364 308.02 646.978 308.616C647.592 309.213 647.903 309.929 647.911 310.764C647.903 311.327 647.754 311.842 647.464 312.311C647.183 312.771 646.812 313.142 646.352 313.423C645.891 313.696 645.389 313.832 644.843 313.832Z" fill="#FA8A5A"/>
<rect x="760" y="52.7783" width="99" height="101" rx="49.5" fill="#79B95A"/>
<path d="M773.776 116.278V90.0965H791.111V94.6604H779.311V100.899H789.96V105.463H779.311V116.278H773.776ZM810.487 87.8023H823.771V91.7623H810.487V87.8023ZM822.007 87.8023H822.475L823.087 87.6223L826.003 88.0183C825.391 92.2663 824.347 97.7383 823.447 102.058L819.559 101.626C820.531 97.2343 821.575 91.3303 822.007 88.2343V87.8023ZM822.619 96.8023H828.127V100.654H821.467L822.619 96.8023ZM826.687 96.8023H827.479L828.199 96.6583L830.755 97.6303C828.775 108.646 823.663 115.846 817.039 119.446C816.427 118.51 815.023 116.89 814.123 116.278C820.531 113.146 825.103 106.918 826.687 97.6303V96.8023ZM817.183 93.2023C818.803 104.182 822.475 112.822 831.511 116.062C830.611 116.854 829.423 118.474 828.847 119.59C819.379 115.522 815.887 106.198 814.015 93.6703L817.183 93.2023ZM802.639 85.7503L806.383 87.1543C804.907 89.8903 803.251 93.0943 801.847 95.1103L798.967 93.8503C800.263 91.7263 801.811 88.2703 802.639 85.7503ZM806.779 89.9983L810.271 91.5823C807.679 95.7223 804.151 100.726 801.415 103.858L798.931 102.454C801.595 99.1783 804.907 93.8863 806.779 89.9983ZM797.095 94.2823L799.147 91.3303C801.055 92.9863 803.287 95.2543 804.223 96.9103L801.991 100.258C801.127 98.5303 798.931 96.0103 797.095 94.2823ZM806.167 98.6023L809.011 97.4143C810.451 99.8263 811.819 102.994 812.215 105.082L809.155 106.45C808.759 104.362 807.499 101.086 806.167 98.6023ZM797.059 101.59C800.371 101.482 805.267 101.302 810.055 101.05L810.019 104.47C805.555 104.83 800.947 105.118 797.419 105.37L797.059 101.59ZM806.635 107.494L809.659 106.522C810.523 108.43 811.387 110.986 811.747 112.642L808.579 113.758C808.255 112.066 807.391 109.474 806.635 107.494ZM798.607 106.882L802.171 107.494C801.811 110.95 801.019 114.55 799.975 116.854C799.219 116.386 797.599 115.63 796.699 115.27C797.743 113.146 798.319 109.942 798.607 106.882ZM802.639 103.498H806.419V119.554H802.639V103.498ZM813.439 90.4303H817.183V97.1983C817.183 103.606 816.499 113.074 810.775 119.41C810.091 118.726 808.579 117.574 807.607 117.106C812.935 111.346 813.439 102.778 813.439 97.1623V90.4303ZM844.439 90.0965L843.94 108.429H839.261L838.75 90.0965H844.439ZM841.601 116.611C840.757 116.611 840.033 116.312 839.428 115.716C838.823 115.111 838.524 114.386 838.533 113.543C838.524 112.707 838.823 111.991 839.428 111.395C840.033 110.798 840.757 110.5 841.601 110.5C842.411 110.5 843.122 110.798 843.736 111.395C844.35 111.991 844.661 112.707 844.669 113.543C844.661 114.105 844.511 114.621 844.222 115.089C843.94 115.55 843.57 115.92 843.109 116.202C842.649 116.474 842.146 116.611 841.601 116.611Z" fill="#F0EFE6"/>
<rect x="482" y="279.667" width="39" height="99.8586" rx="19.5" transform="rotate(-47.7938 482 279.667)" fill="#7FB1B1"/>
<defs>
<linearGradient id="paint0_linear_1964_6786" x1="119.439" y1="118.799" x2="19.2128" y2="20.4936" gradientUnits="userSpaceOnUse">
<stop stop-color="#FFD983"/>
<stop offset="1" stop-color="#F0EFE6"/>
</linearGradient>
<radialGradient id="paint1_angular_1964_6786" cx="0" cy="0" r="1" gradientUnits="userSpaceOnUse" gradientTransform="translate(49.5 255.278) rotate(90) scale(15 39.5)">
<stop stop-color="#F0EFE6"/>
<stop offset="0.226667" stop-color="#E0F17B"/>
<stop offset="0.496667" stop-color="#F0EFE6"/>
<stop offset="0.846667" stop-color="#E3F18B"/>
<stop offset="0.931667" stop-color="#F0EFE6"/>
</radialGradient>
<radialGradient id="paint2_angular_1964_6786" cx="0" cy="0" r="1" gradientUnits="userSpaceOnUse" gradientTransform="translate(611.5 300.5) rotate(90) scale(50.5 49.5)">
<stop stop-color="#E3E6E1"/>
<stop offset="0.395" stop-color="#F1F0E7"/>
<stop offset="0.76" stop-color="#DCE1DE"/>
</radialGradient>
<clipPath id="clip0_1964_6786">
<rect width="167" height="215" fill="white" transform="translate(464 42.7783)"/>
</clipPath>
<clipPath id="clip1_1964_6786">
<rect width="167" height="215" fill="white" transform="translate(91 42.7783)"/>
</clipPath>
</defs>
</svg>
