<svg width="59" height="183" viewBox="0 0 59 183" fill="none" xmlns="http://www.w3.org/2000/svg">
<path d="M29.7522 95.0862C26.5989 100.426 29.4975 107.971 36.1956 111.909C40.3657 114.363 45.0324 114.841 48.7289 113.582L43.5226 103.328L55.2362 105.503C55.6754 100.823 52.8101 95.6075 47.5926 92.5391C40.8751 88.5939 32.8928 89.7199 29.7588 95.0668L29.7522 95.0862Z" fill="#76B159"/>
<rect x="19" width="6" height="140" rx="3" fill="#3C4040"/>
<path d="M24.2543 137.872C14.8254 136.716 6.02888 145.374 4.56755 157.179C3.67923 164.553 5.82422 171.368 9.84877 175.755L21.0425 162.208L25.1305 179.944C31.9691 177.711 37.5401 170.505 38.6806 161.309C40.1419 149.504 33.651 138.971 24.222 137.816L24.2543 137.872Z" fill="#76B159"/>
</svg>
