<svg width="298" height="71" viewBox="0 0 298 71" fill="none" xmlns="http://www.w3.org/2000/svg">
<g clip-path="url(#clip0_1983_6809)">
<path d="M52.0209 69.2332C80.4709 69.2332 103.534 61.13 103.534 51.1341C103.534 41.1382 80.4709 33.0349 52.0209 33.0349C23.571 33.0349 0.507797 41.1382 0.507797 51.1341C0.507797 61.13 23.571 69.2332 52.0209 69.2332Z" fill="#3C4040"/>
<path d="M94.5659 40.6261C103.759 44.9967 107.473 52.9272 98.4517 60.1175C91.8591 65.1181 83.7431 67.3563 75.7773 68.9953C55.4034 72.6785 31.3733 71.5903 12.2667 63.206C8.6194 61.4745 5.03388 59.3905 2.25643 56.421C1.35122 55.4209 0.547567 54.315 0.00444031 53.099C1.44395 55.3328 3.58554 56.9541 5.82429 58.3067C10.3415 60.9634 15.3842 62.62 20.449 63.8977C38.2927 68.1317 57.0902 68.5282 75.1811 65.7173C82.7982 64.3691 90.5874 62.5363 97.074 58.2759C105.808 52.2707 101.909 45.5386 94.5659 40.6261Z" fill="#EF8659"/>
<path d="M29.4304 64.5499C51.1952 68.9909 71.9047 67.8851 89.7705 61.4922C90.1281 53.1299 82.882 38.0091 72.1343 31.9731L73.9094 24.5713L75.5653 24.9679C76.89 25.2851 78.2235 24.47 78.5414 23.1438L78.855 21.8353C79.1729 20.5136 78.356 19.183 77.0269 18.8658L51.8355 12.843C50.5108 12.5258 49.1773 13.3409 48.8593 14.667L48.5458 15.9756C48.2279 17.2973 49.0448 18.6279 50.3739 18.9451L52.0298 19.3416L50.003 27.7876C36.3851 29.6865 24.7189 39.4983 21.3718 53.4516C20.6521 56.4475 20.3695 59.4435 20.4666 62.3822C23.3942 63.2017 26.3836 63.9286 29.4348 64.5499H29.4304Z" stroke="#76B159" stroke-width="2" stroke-miterlimit="10"/>
<path d="M42.0244 60.1203C46.0992 59.472 48.7519 54.8752 47.9493 49.8531C47.1467 44.831 43.1928 41.2854 39.118 41.9337C35.0432 42.582 32.3905 47.1788 33.1931 52.2009C33.9957 57.2229 37.9496 60.7686 42.0244 60.1203Z" stroke="#76B159" stroke-miterlimit="10"/>
<path d="M43.3226 55.9007C44.3991 55.7295 45.0669 54.3089 44.8142 52.7277C44.5615 51.1466 43.484 50.0037 42.4075 50.175C41.331 50.3463 40.6632 51.7669 40.9159 53.348C41.1685 54.9291 42.2461 56.072 43.3226 55.9007Z" stroke="#76B159" stroke-miterlimit="10"/>
<path d="M62.529 58.3435C66.6038 57.6952 69.2565 53.0985 68.4539 48.0764C67.6513 43.0543 63.6974 39.5086 59.6226 40.1569C55.5477 40.8052 52.8951 45.402 53.6977 50.4241C54.5003 55.4462 58.4542 58.9919 62.529 58.3435Z" stroke="#76B159" stroke-miterlimit="10"/>
<path d="M63.8359 54.1278C64.9124 53.9565 65.5803 52.5359 65.3276 50.9548C65.0749 49.3737 63.9974 48.2308 62.9209 48.402C61.8444 48.5733 61.1765 49.9939 61.4292 51.575C61.6819 53.1561 62.7594 54.2991 63.8359 54.1278Z" stroke="#76B159" stroke-miterlimit="10"/>
<path d="M61.5102 32.3917C62.5391 32.3564 62.1726 30.647 62.0975 30.0345C61.9297 28.7348 61.6957 27.4483 61.4793 26.1574C61.0377 23.5095 61.0642 20.8131 61.6824 18.1652C62.411 15.0459 63.9035 12.0852 66.31 9.92192C68.3589 8.08028 70.9332 6.93917 73.6091 6.3576C75.3798 5.97429 77.2123 5.81568 79.036 5.91702C79.716 5.95226 79.716 4.89486 79.036 4.85962C74.8235 4.63492 70.3062 5.64386 66.862 8.12874C61.7707 11.8032 59.5497 18.5529 60.1988 24.6462C60.3445 26.0296 60.6315 27.3999 60.8523 28.7701C60.9538 29.4133 61.0554 30.0522 61.1128 30.6998C61.1349 30.9289 61.1481 31.158 61.1437 31.3871C61.1437 31.4268 61.1393 31.4664 61.1393 31.5105C61.1393 31.6339 61.1614 31.5193 61.1393 31.5369C61.1261 31.5457 61.1261 31.5986 61.1172 31.6118C61.1702 31.5193 61.1658 31.4885 61.2894 31.4048L61.5588 31.3343H61.5146C60.8346 31.3607 60.8302 32.4181 61.5146 32.3917H61.5102Z" fill="#EF8659"/>
<path d="M79.6939 5.86414C80.6654 7.48549 83.1028 7.81152 85.1429 6.59991C86.4102 5.84211 87.2226 4.67016 87.4213 3.49821L83.9197 3.39247L86.2159 0.581546C85.0236 -0.21591 83.2088 -0.21591 81.628 0.726939C79.5924 1.94295 78.7269 4.24279 79.6983 5.86414H79.6939Z" fill="#76B159"/>
<path d="M75.6492 8.05381C73.5694 9.26541 73.119 12.3539 74.6424 14.9578C75.5874 16.5791 77.0754 17.6233 78.5679 17.892L78.749 13.4465L82.2992 16.3985C83.3324 14.8961 83.3545 12.5918 82.1755 10.5739C80.6521 7.9701 77.7334 6.84221 75.6536 8.05381H75.6492Z" fill="#76B159"/>
<path d="M26.6794 65.7614C48.4443 70.2025 69.5291 68.7309 87.0195 62.7038C86.9224 50.5128 80.1311 39.2207 69.3834 33.1847L71.1584 25.7829L72.8143 26.1794C74.139 26.4966 75.4725 25.6815 75.7905 24.3554L76.104 23.0469C76.4219 21.7251 75.605 20.3945 74.2759 20.0773L49.0845 14.0546C47.7598 13.7373 46.4263 14.5524 46.1084 15.8786L45.7949 17.1871C45.4769 18.5088 46.2938 19.8394 47.6229 20.1566L49.2788 20.5532L47.252 28.9991C33.6341 30.8981 21.9679 40.7098 18.6209 54.6631C17.9011 57.6591 17.6185 60.655 17.7156 63.5937C20.6432 64.4132 23.6326 65.1402 26.6839 65.7614H26.6794Z" fill="#76B159"/>
<path d="M39.2686 60.7088C43.3434 60.0605 45.996 55.4637 45.1934 50.4416C44.3908 45.4195 40.4369 41.8739 36.3621 42.5222C32.2873 43.1705 29.6346 47.7673 30.4372 52.7894C31.2398 57.8115 35.1937 61.3571 39.2686 60.7088Z" fill="white"/>
<path d="M40.571 56.493C41.6475 56.3217 42.3154 54.9011 42.0627 53.32C41.81 51.7389 40.7325 50.596 39.656 50.7673C38.5795 50.9385 37.9116 52.3591 38.1643 53.9403C38.417 55.5214 39.4945 56.6643 40.571 56.493Z" fill="#231815"/>
<path d="M59.7782 58.9402C63.853 58.2919 66.5057 53.6951 65.7031 48.673C64.9005 43.6509 60.9465 40.1053 56.8717 40.7536C52.7969 41.4019 50.1443 45.9987 50.9469 51.0208C51.7495 56.0429 55.7034 59.5885 59.7782 58.9402Z" fill="white"/>
<path d="M61.08 54.7163C62.1565 54.545 62.8244 53.1244 62.5717 51.5433C62.319 49.9622 61.2415 48.8193 60.165 48.9905C59.0885 49.1618 58.4207 50.5824 58.6733 52.1635C58.926 53.7446 60.0035 54.8876 61.08 54.7163Z" fill="#231815"/>
<path d="M134.563 45.9573L142.957 52.8656C143.496 53.3106 144.304 53.2049 144.71 52.6365L145.54 51.4778C145.911 50.9579 145.819 50.2397 145.32 49.8388L136.095 42.3533C135.305 41.71 134.121 42.274 134.121 43.2917V45.0276C134.121 45.3889 134.285 45.7282 134.563 45.9573Z" fill="#3C4040"/>
<path d="M125.012 43.0186C124.341 43.0186 123.789 43.5693 123.815 44.239C123.846 45.0981 123.718 46.226 122.99 46.953C121.974 47.9663 120.406 49.3233 119.329 50.0459C118.87 50.3499 118.693 50.9358 118.887 51.4513L119.373 52.7378C119.647 53.4648 120.526 53.7468 121.166 53.3106C123.144 51.958 126.827 49.2748 127.573 47.583C128.081 46.4331 128.377 45.314 128.553 44.4681C128.708 43.7191 128.143 43.0186 127.379 43.0186H125.016H125.012Z" fill="#3C4040"/>
<path d="M146.574 41.6792H118.282C117.936 41.6792 117.655 41.9593 117.655 42.3048V43.7279C117.655 44.0734 117.936 44.3535 118.282 44.3535H146.574C146.92 44.3535 147.201 44.0734 147.201 43.7279V42.3048C147.201 41.9593 146.92 41.6792 146.574 41.6792Z" fill="#3C4040"/>
<path d="M133.64 39.1106H129.776C129.423 39.1106 129.136 39.3966 129.136 39.7494V54.8262C129.136 55.179 129.423 55.465 129.776 55.465H133.64C133.994 55.465 134.28 55.179 134.28 54.8262V39.7494C134.28 39.3966 133.994 39.1106 133.64 39.1106Z" fill="#3C4040"/>
<path d="M178.989 21.3815H156.019C155.672 21.3815 155.392 21.6616 155.392 22.0071V23.4302C155.392 23.7757 155.672 24.0558 156.019 24.0558H178.989C179.335 24.0558 179.616 23.7757 179.616 23.4302V22.0071C179.616 21.6616 179.335 21.3815 178.989 21.3815Z" fill="#3C4040"/>
<path d="M142.962 28.5013H119.991C119.645 28.5013 119.364 28.7814 119.364 29.127V30.5501C119.364 30.8956 119.645 31.1757 119.991 31.1757H142.962C143.308 31.1757 143.589 30.8956 143.589 30.5501V29.127C143.589 28.7814 143.308 28.5013 142.962 28.5013Z" fill="#3C4040"/>
<path d="M183.33 36.0265H160.125C159.991 36.0265 159.882 36.135 159.882 36.2688V37.0178C159.882 37.1516 159.991 37.2601 160.125 37.2601H183.33C183.464 37.2601 183.572 37.1516 183.572 37.0178V36.2688C183.572 36.135 183.464 36.0265 183.33 36.0265Z" fill="#3C4040"/>
<path d="M179.25 31.885H160.094C159.96 31.885 159.852 31.9935 159.852 32.1273V32.8763C159.852 33.0102 159.96 33.1186 160.094 33.1186H179.25C179.384 33.1186 179.492 33.0102 179.492 32.8763V32.1273C179.492 31.9935 179.384 31.885 179.25 31.885Z" fill="#3C4040"/>
<path d="M214.058 38.0973H198.347C198.213 38.0973 198.104 38.2058 198.104 38.3396V38.9036C198.104 39.0374 198.213 39.1459 198.347 39.1459H214.058C214.192 39.1459 214.301 39.0374 214.301 38.9036V38.3396C214.301 38.2058 214.192 38.0973 214.058 38.0973Z" fill="#3C4040"/>
<path d="M211.056 29.3824H198.347C198.213 29.3824 198.104 29.4909 198.104 29.6248V30.1887C198.104 30.3225 198.213 30.431 198.347 30.431H211.056C211.19 30.431 211.298 30.3225 211.298 30.1887V29.6248C211.298 29.4909 211.19 29.3824 211.056 29.3824Z" fill="#3C4040"/>
<path d="M256.162 29.4927H247.065C246.931 29.4927 246.822 29.6012 246.822 29.735V30.2989C246.822 30.4328 246.931 30.5413 247.065 30.5413H256.162C256.296 30.5413 256.404 30.4328 256.404 30.2989V29.735C256.404 29.6012 256.296 29.4927 256.162 29.4927Z" fill="#3C4040"/>
<path d="M239.731 26.7522H227.826C227.692 26.7522 227.583 26.8607 227.583 26.9945V27.4924C227.583 27.6262 227.692 27.7347 227.826 27.7347H239.731C239.865 27.7347 239.974 27.6262 239.974 27.4924V26.9945C239.974 26.8607 239.865 26.7522 239.731 26.7522Z" fill="#3C4040"/>
<path d="M288.308 25.9988H278.677C278.543 25.9988 278.434 26.1073 278.434 26.2411V26.805C278.434 26.9389 278.543 27.0474 278.677 27.0474H288.308C288.442 27.0474 288.55 26.9389 288.55 26.805V26.2411C288.55 26.1073 288.442 25.9988 288.308 25.9988Z" fill="#3C4040"/>
<path d="M239.731 31.3519H227.826C227.692 31.3519 227.583 31.4604 227.583 31.5942V32.0921C227.583 32.2259 227.692 32.3344 227.826 32.3344H239.731C239.865 32.3344 239.974 32.2259 239.974 32.0921V31.5942C239.974 31.4604 239.865 31.3519 239.731 31.3519Z" fill="#3C4040"/>
<path d="M170.683 27.3514H160.094C159.96 27.3514 159.852 27.4599 159.852 27.5938V28.3428C159.852 28.4766 159.96 28.5851 160.094 28.5851H170.683C170.817 28.5851 170.926 28.4766 170.926 28.3428V27.5938C170.926 27.4599 170.817 27.3514 170.683 27.3514Z" fill="#3C4040"/>
<path d="M297.205 20.3153H268.548C268.201 20.3153 267.92 20.5954 267.92 20.9409V22.8927C267.92 23.2382 268.201 23.5183 268.548 23.5183H297.205C297.551 23.5183 297.832 23.2382 297.832 22.8927V20.9409C297.832 20.5954 297.551 20.3153 297.205 20.3153Z" fill="#3C4040"/>
<path d="M213.678 32.1361H194.722C194.376 32.1361 194.095 32.4162 194.095 32.7617V33.9733C194.095 34.3189 194.376 34.599 194.722 34.599H213.678C214.025 34.599 214.305 34.3189 214.305 33.9733V32.7617C214.305 32.4162 214.025 32.1361 213.678 32.1361Z" fill="#3C4040"/>
<path d="M239.559 20.0377H226.484C226.138 20.0377 225.857 20.3178 225.857 20.6633V22.5094C225.857 22.8549 226.138 23.135 226.484 23.135H239.559C239.905 23.135 240.186 22.8549 240.186 22.5094V20.6633C240.186 20.3178 239.905 20.0377 239.559 20.0377Z" fill="#3C4040"/>
<path d="M213.678 41.9215H194.722C194.376 41.9215 194.095 42.2016 194.095 42.5471V43.7587C194.095 44.1043 194.376 44.3844 194.722 44.3844H213.678C214.025 44.3844 214.305 44.1043 214.305 43.7587V42.5471C214.305 42.2016 214.025 41.9215 213.678 41.9215Z" fill="#3C4040"/>
<path d="M285.875 17.0109H281.115C280.768 17.0109 280.487 17.291 280.487 17.6365V26.4217C280.487 26.7672 280.768 27.0474 281.115 27.0474H285.875C286.221 27.0474 286.502 26.7672 286.502 26.4217V17.6365C286.502 17.291 286.221 17.0109 285.875 17.0109Z" fill="#3C4040"/>
<path d="M178.989 21.3815H175.099C174.752 21.3815 174.472 21.6616 174.472 22.0071V32.493C174.472 32.8385 174.752 33.1186 175.099 33.1186H178.989C179.335 33.1186 179.616 32.8385 179.616 32.493V22.0071C179.616 21.6616 179.335 21.3815 178.989 21.3815Z" fill="#3C4040"/>
<path d="M213.678 32.1361H209.788C209.442 32.1361 209.161 32.4162 209.161 32.7617V43.675C209.161 44.0205 209.442 44.3006 209.788 44.3006H213.678C214.025 44.3006 214.305 44.0205 214.305 43.675V32.7617C214.305 32.4162 214.025 32.1361 213.678 32.1361Z" fill="#3C4040"/>
<path d="M228.749 20.0377H226.435C226.089 20.0377 225.808 20.3178 225.808 20.6633V38.2867C225.808 38.6322 226.089 38.9123 226.435 38.9123H228.749C229.095 38.9123 229.376 38.6322 229.376 38.2867V20.6633C229.376 20.3178 229.095 20.0377 228.749 20.0377Z" fill="#3C4040"/>
<path d="M235.827 20.0377H233.514C233.167 20.0377 232.887 20.3178 232.887 20.6633V37.9915C232.887 38.337 233.167 38.6171 233.514 38.6171H235.827C236.174 38.6171 236.454 38.337 236.454 37.9915V20.6633C236.454 20.3178 236.174 20.0377 235.827 20.0377Z" fill="#3C4040"/>
<path d="M159.909 21.8132H156.019C155.672 21.8132 155.392 22.0933 155.392 22.4389V42.6793C155.392 43.0248 155.672 43.3049 156.019 43.3049H159.909C160.255 43.3049 160.536 43.0248 160.536 42.6793V22.4389C160.536 22.0933 160.255 21.8132 159.909 21.8132Z" fill="#3C4040"/>
<path d="M159.635 40.168H182.336C183.02 40.168 183.572 40.7187 183.572 41.4016V51.9183C183.572 53.7908 181.934 55.2491 180.071 55.0333L172.494 54.1653C171.716 54.0772 171.217 53.2974 171.46 52.5572L171.769 51.6143C171.955 51.046 172.524 50.6891 173.121 50.7772L176.34 51.1121C177.104 51.2222 177.514 50.5261 177.483 49.7551L177.532 44.4901C177.505 43.8292 176.958 43.3049 176.295 43.3049H159.64C158.955 43.3049 158.403 42.7542 158.403 42.0713V41.4016C158.403 40.7187 158.955 40.168 159.64 40.168H159.635Z" fill="#3C4040"/>
<path d="M226.89 35.4801H239.148C239.744 35.4801 240.23 36.1498 240.23 36.9825V50.2529C240.23 52.5307 238.799 54.3018 237.165 54.0419L231.293 52.9845C230.613 52.8744 230.175 51.9315 230.387 51.0283L230.657 49.8784C230.82 49.1867 231.319 48.7549 231.84 48.8606L234.657 49.2704C235.328 49.4026 235.686 48.5566 235.66 47.6182L235.704 40.3486C235.682 39.5423 235.205 38.9079 234.622 38.9079H226.895C226.298 38.9079 225.813 38.2382 225.813 37.4055V36.9737C225.813 36.1454 226.298 35.4713 226.895 35.4713L226.89 35.4801Z" fill="#3C4040"/>
<path d="M195.318 32.4974H197.923C198.599 32.4974 199.147 33.0438 199.147 33.7179V48.0809C199.147 48.8695 199.884 49.4511 200.652 49.266L202.012 48.9444C202.622 48.799 203.244 49.1383 203.452 49.7287L204.03 51.3808C204.247 52.0065 203.929 52.6894 203.31 52.9229L196.144 55.6369C195.142 55.9805 194.099 55.2359 194.099 54.1829V33.7179C194.099 33.0438 194.647 32.4974 195.323 32.4974H195.318Z" fill="#3C4040"/>
<path d="M189.189 27.3646L203.178 19.4561C203.562 19.2402 204.035 19.2447 204.414 19.4738L218.862 28.2237C219.467 28.5894 219.635 29.3869 219.233 29.964L218.16 31.5017C217.794 32.026 217.092 32.1802 216.54 31.8586L204.507 24.8313C204.141 24.6198 203.69 24.6066 203.315 24.8048L191.185 31.2285C190.571 31.5546 189.807 31.3034 189.507 30.6734L188.686 28.9507C188.412 28.3735 188.628 27.6818 189.189 27.3646Z" fill="#3C4040"/>
<path d="M241.559 26.2676L251.057 19.1654C251.322 18.9672 251.658 18.9672 251.927 19.1654L262.026 27.2589C262.401 27.5409 262.529 28.1313 262.313 28.5983L260.966 30.0302C260.741 30.5148 260.233 30.6867 259.831 30.4091L251.9 24.7388C251.649 24.5626 251.335 24.5582 251.079 24.7388L243.299 30.0919C242.892 30.3739 242.376 30.1888 242.159 29.6821L241.259 27.5894C241.06 27.1224 241.188 26.5496 241.559 26.2764V26.2676Z" fill="#3C4040"/>
<path d="M292.317 28.4308H274.412C273.696 28.4308 273.113 28.9815 273.113 29.66V33.4446C273.113 34.1231 273.696 34.6739 274.412 34.6739H292.317C293.032 34.6739 293.615 34.1231 293.615 33.4446V29.66C293.615 28.9815 293.032 28.4308 292.317 28.4308ZM286.886 31.4664V31.6426C286.886 32.3211 286.303 32.8719 285.588 32.8719H279.145C278.43 32.8719 277.847 32.3211 277.847 31.6426V31.4664C277.847 30.7879 278.43 30.2372 279.145 30.2372H285.588C286.303 30.2372 286.886 30.7879 286.886 31.4664Z" fill="#3C4040"/>
<path d="M244.787 43.838V47.9531C244.787 48.3056 244.659 48.6448 244.425 48.9092L241.965 51.6804C241.656 52.0285 241.537 52.4999 241.638 52.9537C241.895 54.0816 243.312 54.4649 244.102 53.619L245.864 51.7333C246.416 51.1429 247.348 51.1209 247.931 51.6848L248.655 52.3898C249.326 53.0418 250.43 52.8964 250.907 52.0946L250.92 52.0681C251.265 51.491 251.163 50.7552 250.677 50.2926L248.646 48.3496C248.364 48.0765 248.2 47.702 248.2 47.3098V43.838C248.2 43.0406 247.555 42.3973 246.756 42.3973H246.231C245.432 42.3973 244.787 43.0406 244.787 43.838Z" fill="#3C4040"/>
<path d="M254.139 43.7102V47.8253C254.139 48.1778 254.011 48.517 253.777 48.7814L251.318 51.5526C251.009 51.9007 250.889 52.3721 250.991 52.8259C251.247 53.9538 252.664 54.3371 253.455 53.4912L255.217 51.6055C255.769 51.0151 256.7 50.9931 257.283 51.557L258.007 52.262C258.678 52.914 259.782 52.7686 260.259 51.9668L260.273 51.9403C260.617 51.3632 260.515 50.6274 260.03 50.1648L257.999 48.2218C257.716 47.9486 257.553 47.5742 257.553 47.182V43.7102C257.553 42.9128 256.908 42.2695 256.109 42.2695H255.583C254.784 42.2695 254.139 42.9128 254.139 43.7102Z" fill="#3C4040"/>
<path d="M247.635 40.9874C249.727 40.9874 251.424 38.9537 251.424 36.445C251.424 33.9363 249.727 31.9026 247.635 31.9026C245.542 31.9026 243.846 33.9363 243.846 36.445C243.846 38.9537 245.542 40.9874 247.635 40.9874Z" fill="#3C4040"/>
<path d="M246.822 38.9123C247.613 38.9123 248.253 38.143 248.253 37.194C248.253 36.245 247.613 35.4757 246.822 35.4757C246.032 35.4757 245.392 36.245 245.392 37.194C245.392 38.143 246.032 38.9123 246.822 38.9123Z" fill="#EFEEE5"/>
<path d="M257.16 41.1857C259.342 41.1857 261.112 39.0632 261.112 36.445C261.112 33.8268 259.342 31.7043 257.16 31.7043C254.977 31.7043 253.207 33.8268 253.207 36.445C253.207 39.0632 254.977 41.1857 257.16 41.1857Z" fill="#3C4040"/>
<path d="M256.056 38.9123C256.846 38.9123 257.486 38.143 257.486 37.194C257.486 36.245 256.846 35.4757 256.056 35.4757C255.265 35.4757 254.625 36.245 254.625 37.194C254.625 38.143 255.265 38.9123 256.056 38.9123Z" fill="#EFEEE5"/>
<path d="M171.01 13.4862C169.517 12.7813 167.588 13.7242 166.705 15.5922C166.153 16.7554 166.135 17.9978 166.559 18.9451L169.151 17.3237L168.855 20.4695C170.109 20.4695 171.421 19.5927 172.109 18.1432C172.997 16.2751 172.507 14.1912 171.014 13.4862H171.01Z" fill="#76B159"/>
<path d="M229.65 43.142C229.535 44.3051 230.63 45.3625 232.092 45.5035C233.001 45.5916 233.84 45.3052 234.37 44.7941L232.666 43.4592L234.843 42.8996C234.542 42.0669 233.637 41.4017 232.502 41.2915C231.041 41.1505 229.76 41.9788 229.65 43.142Z" fill="#76B159"/>
<path d="M225.451 44.12C224.13 43.4944 222.426 44.3315 221.64 45.9837C221.154 47.0102 221.137 48.1117 221.512 48.9488L223.804 47.5169L223.539 50.3014C224.647 50.3014 225.808 49.526 226.418 48.2439C227.204 46.5917 226.766 44.7456 225.446 44.1244L225.451 44.12Z" fill="#76B159"/>
<path d="M279.83 39.9257C281.154 39.3133 281.605 37.4716 280.832 35.8151C280.351 34.7841 279.512 34.0659 278.628 33.8192L278.266 36.4936L276.288 34.5109C275.577 35.3568 275.436 36.7491 276.032 38.0356C276.805 39.6922 278.5 40.5425 279.825 39.9257H279.83Z" fill="#76B159"/>
<path d="M272.177 40.2737C271.652 39.2912 270.225 39.0268 268.989 39.6833C268.221 40.093 267.709 40.7627 267.554 41.4456L269.612 41.6086L268.177 43.1947C268.857 43.7014 269.925 43.7499 270.883 43.2432C272.12 42.5867 272.694 41.2562 272.168 40.2737H272.177Z" fill="#76B159"/>
<path d="M287.928 40.9037C289.019 41.873 290.891 41.547 292.11 40.1812C292.865 39.3308 293.191 38.2779 293.063 37.3702L290.462 38.106L291.496 35.5066C290.432 35.1938 289.098 35.6167 288.153 36.6785C286.939 38.0443 286.837 39.9388 287.928 40.9037Z" fill="#76B159"/>
<path d="M163.993 48.8563C162.338 49.0633 161.207 50.9138 161.468 52.9889C161.631 54.2798 162.293 55.3505 163.172 55.9276L164.497 53.1387L165.958 55.9849C167.027 55.3064 167.667 53.8437 167.464 52.2311C167.204 50.156 165.645 48.6448 163.989 48.8519L163.993 48.8563Z" fill="#76B159"/>
<path d="M155.952 46.367C154.756 45.2303 152.623 45.5211 151.192 47.0191C150.3 47.9531 149.894 49.1295 150 50.1649L152.972 49.4379L151.7 52.3369C152.888 52.7335 154.416 52.3061 155.529 51.143C156.959 49.645 157.149 47.5081 155.952 46.367Z" fill="#76B159"/>
<path d="M122.928 35.3347C122.87 34.1275 121.59 33.2111 120.075 33.286C119.13 33.3301 118.318 33.753 117.854 34.3522L119.801 35.4625L117.66 36.3569C118.093 37.1676 119.117 37.7095 120.292 37.6522C121.806 37.5773 122.99 36.5419 122.932 35.3347H122.928Z" fill="#76B159"/>
<path d="M132.488 33.7442C131.123 33.2992 129.564 34.3258 129.008 36.0309C128.659 37.0927 128.783 38.1677 129.255 38.9387L131.309 37.2557L131.397 40.0005C132.479 39.8639 133.512 38.9607 133.949 37.6346C134.506 35.9251 133.852 34.1804 132.488 33.7398V33.7442Z" fill="#76B159"/>
<path d="M139.804 35.6344C140.899 36.8725 143.045 36.7667 144.6 35.3965C145.567 34.5462 146.075 33.4051 146.061 32.3697L143.037 32.8367L144.556 30.0566C143.403 29.5588 141.844 29.854 140.639 30.9158C139.085 32.286 138.709 34.3964 139.804 35.6344Z" fill="#76B159"/>
<path d="M209.431 51.3544C209.731 51.7289 210.221 51.4601 210.393 51.1297C210.521 50.8785 210.61 50.5966 210.716 50.3366C210.746 50.2573 210.782 50.1736 210.817 50.0943C210.848 50.0194 210.764 50.2177 210.799 50.1428C210.808 50.1207 210.822 50.0943 210.83 50.0723C210.852 50.0282 210.87 49.9797 210.892 49.9357C210.985 49.733 211.078 49.5304 211.179 49.3321C211.426 48.8519 211.705 48.3848 212.018 47.9443C212.062 47.8826 212.106 47.8209 212.151 47.7592C212.182 47.7196 212.314 47.5433 212.23 47.6535C212.327 47.5257 212.429 47.4023 212.535 47.279C212.756 47.019 212.99 46.7679 213.237 46.53C213.502 46.27 213.784 46.0233 214.076 45.7942C214.111 45.7678 214.147 45.7369 214.182 45.7105C214.102 45.7722 214.213 45.6885 214.239 45.6708C214.319 45.6092 214.398 45.5519 214.482 45.4946C214.65 45.3757 214.822 45.2611 214.999 45.151C216.712 44.0715 218.611 43.4767 220.646 43.1639C223.64 42.7013 226.74 42.9128 229.716 43.393C230.193 43.4679 230.674 43.556 231.147 43.6442C231.814 43.7719 232.101 42.7542 231.429 42.6264C228.25 42.0184 224.974 41.6659 221.741 41.9699C219.529 42.1814 217.335 42.6969 215.356 43.7235C213.979 44.4372 212.725 45.4109 211.727 46.6049C211.016 47.4552 210.429 48.3936 209.978 49.4026C209.828 49.7418 209.691 50.0855 209.554 50.4291C209.532 50.482 209.51 50.5349 209.492 50.5878C209.444 50.7111 209.537 50.438 209.492 50.5966C209.484 50.623 209.453 50.6538 209.448 50.6803C209.435 50.7508 209.488 50.6274 209.51 50.6054C209.457 50.6582 209.616 50.5305 209.594 50.5437C209.771 50.4424 210.084 50.4776 210.19 50.6142C210.013 50.3895 209.625 50.4291 209.439 50.6142C209.219 50.8345 209.263 51.1385 209.439 51.3632L209.431 51.3544Z" fill="#76B159"/>
<path d="M123.043 35.5594C123.153 35.4978 123.272 35.4449 123.387 35.3964C123.449 35.37 123.515 35.3392 123.577 35.3127C123.678 35.2687 123.594 35.3039 123.572 35.3127C123.617 35.2951 123.661 35.2775 123.705 35.2598C123.895 35.1805 124.089 35.11 124.283 35.0396C125.476 34.6122 126.712 34.3082 127.962 34.1187C129.666 33.8588 131.578 33.8324 133.358 34.0306C135.632 34.2862 137.875 34.9382 139.95 35.8899C142.675 37.1411 145.147 38.8814 147.346 40.9081C148.578 42.0448 149.801 43.1683 151.139 44.1861C152.296 45.0628 153.511 45.8647 154.778 46.5652C158.483 48.6139 162.708 49.8079 166.97 49.5744C168.281 49.5039 169.592 49.3056 170.855 48.962C171.487 48.7902 172.149 48.5919 172.736 48.2967C172.763 48.2835 172.789 48.2703 172.816 48.2571C173.425 47.9531 172.891 47.041 172.282 47.345C172.255 47.3583 172.229 47.3715 172.202 47.3847C172.171 47.3979 172.136 47.4155 172.105 47.4288C171.959 47.4948 172.224 47.3803 172.078 47.442C171.774 47.5609 171.465 47.6755 171.151 47.7768C170.67 47.931 170.18 48.0588 169.685 48.1645C169.38 48.2306 169.076 48.2879 168.767 48.3364C168.405 48.3936 168.219 48.4201 167.817 48.4597C163.856 48.8562 159.869 47.9619 156.323 46.1907C153.656 44.8602 151.232 43.0846 149.051 41.0667C147.819 39.9256 146.591 38.8065 145.236 37.8064C144.061 36.9385 142.825 36.1586 141.526 35.489C137.619 33.4711 133.181 32.4974 128.787 32.96C127.379 33.1098 125.979 33.383 124.628 33.8103C123.943 34.0262 123.232 34.2685 122.597 34.6078C122.566 34.621 122.539 34.6386 122.508 34.6518C121.908 34.9691 122.442 35.8855 123.043 35.5639V35.5594Z" fill="#76B159"/>
<path d="M272.155 41.1726C272.879 41.08 273.603 41.0139 274.328 40.9523C276.036 40.8025 277.75 40.7055 279.467 40.6703C281.49 40.6306 283.521 40.6703 285.53 40.9038C286.312 40.9963 287.274 41.1593 288.127 41.3884C288.515 41.4942 288.899 41.6131 289.275 41.7585C289.323 41.7762 289.372 41.7982 289.416 41.8158C289.442 41.8246 289.354 41.7894 289.447 41.829C289.54 41.8687 289.628 41.9083 289.716 41.9524C289.875 42.0273 290.03 42.111 290.175 42.1991C290.317 42.2828 290.454 42.3753 290.586 42.4723C290.613 42.4899 290.515 42.4106 290.595 42.4811C290.621 42.5031 290.652 42.5251 290.679 42.5516C290.741 42.6045 290.802 42.6617 290.86 42.719C290.913 42.7719 290.966 42.8247 291.014 42.882C291.036 42.9085 291.059 42.9349 291.081 42.9613C291.138 43.0274 291.023 42.8776 291.089 42.9745C291.169 43.0935 291.244 43.2125 291.315 43.3402C291.332 43.3755 291.346 43.4107 291.363 43.4416C291.332 43.3711 291.337 43.3711 291.363 43.4372C291.39 43.5032 291.412 43.5693 291.429 43.6398C291.447 43.7103 291.465 43.7808 291.478 43.8513C291.487 43.8821 291.491 43.9174 291.496 43.9526C291.478 43.8337 291.496 43.9174 291.496 43.9835C291.505 44.1421 291.496 44.2919 291.491 44.4505C291.491 44.5122 291.478 44.5474 291.491 44.4593C291.487 44.499 291.478 44.5342 291.474 44.5739C291.456 44.6664 291.438 44.7589 291.412 44.847C291.363 45.0321 291.306 45.2083 291.235 45.3845C291.129 45.6489 291.35 45.9661 291.606 46.0366C291.906 46.1203 292.154 45.9353 292.26 45.6665C292.803 44.2743 292.586 42.7763 291.412 41.7894C290.14 40.7188 288.396 40.2958 286.789 40.027C284.735 39.6878 282.647 39.5953 280.567 39.6041C278.704 39.6085 276.84 39.701 274.981 39.8464C274.054 39.9213 273.127 40.0006 272.204 40.1196C272.19 40.1196 272.177 40.1196 272.164 40.124C271.881 40.1592 271.634 40.3399 271.634 40.6527C271.634 40.9126 271.877 41.2166 272.164 41.1814L272.155 41.1726Z" fill="#76B159"/>
<path d="M124.72 20.3945H120.83C120.484 20.3945 120.203 20.6746 120.203 21.0202V25.7696C120.203 26.1152 120.484 26.3953 120.83 26.3953H124.72C125.067 26.3953 125.347 26.1152 125.347 25.7696V21.0202C125.347 20.6746 125.067 20.3945 124.72 20.3945Z" fill="#3C4040"/>
<path d="M117.836 22.69C119.526 22.69 120.897 21.8655 120.897 20.8484C120.897 19.8312 119.526 19.0067 117.836 19.0067C116.146 19.0067 114.776 19.8312 114.776 20.8484C114.776 21.8655 116.146 22.69 117.836 22.69Z" fill="#3C4040"/>
<path d="M122.566 21.4696C124.029 21.4696 125.215 20.2861 125.215 18.8261C125.215 17.3662 124.029 16.1826 122.566 16.1826C121.102 16.1826 119.916 17.3662 119.916 18.8261C119.916 20.2861 121.102 21.4696 122.566 21.4696Z" fill="#3C4040"/>
<path d="M127.295 22.6283C128.985 22.6283 130.355 21.8038 130.355 20.7867C130.355 19.7696 128.985 18.9451 127.295 18.9451C125.605 18.9451 124.235 19.7696 124.235 20.7867C124.235 21.8038 125.605 22.6283 127.295 22.6283Z" fill="#3C4040"/>
<path d="M142.52 20.3945H138.63C138.284 20.3945 138.003 20.6746 138.003 21.0202V25.7696C138.003 26.1152 138.284 26.3953 138.63 26.3953H142.52C142.866 26.3953 143.147 26.1152 143.147 25.7696V21.0202C143.147 20.6746 142.866 20.3945 142.52 20.3945Z" fill="#3C4040"/>
<path d="M135.64 22.69C137.33 22.69 138.7 21.8655 138.7 20.8484C138.7 19.8312 137.33 19.0067 135.64 19.0067C133.95 19.0067 132.58 19.8312 132.58 20.8484C132.58 21.8655 133.95 22.69 135.64 22.69Z" fill="#3C4040"/>
<path d="M140.37 21.4696C141.833 21.4696 143.019 20.2861 143.019 18.8261C143.019 17.3662 141.833 16.1826 140.37 16.1826C138.906 16.1826 137.72 17.3662 137.72 18.8261C137.72 20.2861 138.906 21.4696 140.37 21.4696Z" fill="#3C4040"/>
<path d="M145.094 22.6283C146.784 22.6283 148.154 21.8038 148.154 20.7867C148.154 19.7696 146.784 18.9451 145.094 18.9451C143.404 18.9451 142.034 19.7696 142.034 20.7867C142.034 21.8038 143.404 22.6283 145.094 22.6283Z" fill="#3C4040"/>
<path d="M279.366 48.495H275.476C275.129 48.495 274.849 48.7751 274.849 49.1206V53.8701C274.849 54.2156 275.129 54.4957 275.476 54.4957H279.366C279.712 54.4957 279.993 54.2156 279.993 53.8701V49.1206C279.993 48.7751 279.712 48.495 279.366 48.495Z" fill="#3C4040"/>
<path d="M272.486 50.7948C274.176 50.7948 275.546 49.9703 275.546 48.9532C275.546 47.9361 274.176 47.1116 272.486 47.1116C270.796 47.1116 269.426 47.9361 269.426 48.9532C269.426 49.9703 270.796 50.7948 272.486 50.7948Z" fill="#3C4040"/>
<path d="M277.215 49.5745C278.679 49.5745 279.865 48.3909 279.865 46.931C279.865 45.471 278.679 44.2875 277.215 44.2875C275.752 44.2875 274.566 45.471 274.566 46.931C274.566 48.3909 275.752 49.5745 277.215 49.5745Z" fill="#3C4040"/>
<path d="M281.94 50.7332C283.63 50.7332 285 49.9087 285 48.8916C285 47.8745 283.63 47.0499 281.94 47.0499C280.25 47.0499 278.88 47.8745 278.88 48.8916C278.88 49.9087 280.25 50.7332 281.94 50.7332Z" fill="#3C4040"/>
<path d="M211.943 55.7206C214.267 55.7206 216.151 53.8408 216.151 51.5219C216.151 49.203 214.267 47.3231 211.943 47.3231C209.619 47.3231 207.735 49.203 207.735 51.5219C207.735 53.8408 209.619 55.7206 211.943 55.7206Z" fill="#EF8659"/>
<path d="M213.59 46.5125H210.292V49.2088H213.59V46.5125Z" fill="#EF8659"/>
<path d="M213.692 46.0983H210.194C210.102 46.0983 210.027 46.1732 210.027 46.2657V46.7107C210.027 46.8031 210.102 46.8781 210.194 46.8781H213.692C213.784 46.8781 213.86 46.8031 213.86 46.7107V46.2657C213.86 46.1732 213.784 46.0983 213.692 46.0983Z" fill="#EF8659"/>
<path d="M292.781 54.6763C295.661 54.6763 297.996 52.4473 297.996 49.6977C297.996 46.9481 295.661 44.7191 292.781 44.7191C289.901 44.7191 287.566 46.9481 287.566 49.6977C287.566 52.4473 289.901 54.6763 292.781 54.6763Z" fill="#EF8659"/>
<path d="M294.878 43.8909H290.683V46.9397H294.878V43.8909Z" fill="#EF8659"/>
<path d="M295.055 43.4238H290.515C290.423 43.4238 290.348 43.4988 290.348 43.5913V44.1376C290.348 44.23 290.423 44.305 290.515 44.305H295.055C295.147 44.305 295.223 44.23 295.223 44.1376V43.5913C295.223 43.4988 295.147 43.4238 295.055 43.4238Z" fill="#EF8659"/>
</g>
<defs>
<clipPath id="clip0_1983_6809">
<rect width="298" height="71" fill="white"/>
</clipPath>
</defs>
</svg>
